<svg width="4109" height="2137" xmlns="http://www.w3.org/2000/svg" xmlns:xlink="http://www.w3.org/1999/xlink" overflow="hidden"><defs><clipPath id="clip0"><rect x="143" y="169" width="4109" height="2137"/></clipPath></defs><g clip-path="url(#clip0)" transform="translate(-143 -169)"><path d="M1114 169 1504 169 1504 2142.19 1504 2146.77 1504 2149.56 1116.42 2306 1114 2303.58 1114 1757.14 1114 1752.56Z" fill="#00B0F0" fill-rule="evenodd" fill-opacity="0.85098"/><rect x="724" y="169" width="780" height="389" fill="#0070C0" fill-opacity="0.85098"/><path d="M143 1333 694.462 1333 1114.06 1752.39 1114.06 1752.39 1504 2142.14 1504 2149.51 1116.48 2306 1114.06 2303.58 1114.06 2303.58Z" fill="#002060" fill-rule="evenodd" fill-opacity="0.85098"/><path d="M1697 169 3057 169 3057 556.497 2887 556.497 2887 339 1867 339 1867 1359 2294.2 1359 2294.2 1529 1697 1529Z" fill="#7030A0" fill-rule="evenodd" fill-opacity="0.501961"/><path d="M2294 558 3655 558 3655 1919 2294 1919ZM2464.12 728.125 2464.12 1748.88 3484.88 1748.88 3484.88 728.125Z" fill="#7030A0" fill-rule="evenodd" fill-opacity="0.74902"/><path d="M2892 946 4252 946 4252 2306 2892 2306ZM3062 1116 3062 2136 4082 2136 4082 1116Z" fill="#7030A0" fill-rule="evenodd"/></g></svg>